<mxfile host="app.diagrams.net" agent="Mozilla/5.0 (Windows NT 10.0; Win64; x64) AppleWebKit/537.36 (KHTML, like Gecko) Chrome/133.0.0.0 Safari/537.36" version="26.0.15">
  <diagram name="第 1 页" id="cGyzY5eKxJorQGyB7AjJ">
    <mxGraphModel dx="1050" dy="530" grid="1" gridSize="10" guides="1" tooltips="1" connect="1" arrows="1" fold="1" page="1" pageScale="1" pageWidth="827" pageHeight="1169" math="0" shadow="0">
      <root>
        <mxCell id="0" />
        <mxCell id="1" parent="0" />
        <mxCell id="3jjAMyPF5PVQkbhZTPx0-4" value="user Application&lt;div&gt;Ring 3&lt;/div&gt;" style="ellipse;whiteSpace=wrap;html=1;aspect=fixed;fillColor=#d5e8d4;strokeColor=#82b366;align=center;verticalAlign=top;fontSize=14;" vertex="1" parent="1">
          <mxGeometry x="262.5" y="92.5" width="385" height="385" as="geometry" />
        </mxCell>
        <mxCell id="3jjAMyPF5PVQkbhZTPx0-3" value="Ring 2" style="ellipse;whiteSpace=wrap;html=1;aspect=fixed;fillColor=#f0a30a;fontColor=#000000;strokeColor=#BD7000;verticalAlign=top;fontSize=14;" vertex="1" parent="1">
          <mxGeometry x="305" y="135" width="300" height="300" as="geometry" />
        </mxCell>
        <mxCell id="3jjAMyPF5PVQkbhZTPx0-2" value="Ring 1" style="ellipse;whiteSpace=wrap;html=1;aspect=fixed;fillColor=#6d8764;fontColor=#ffffff;strokeColor=#3A5431;verticalAlign=top;fontSize=14;" vertex="1" parent="1">
          <mxGeometry x="340" y="170" width="230" height="230" as="geometry" />
        </mxCell>
        <mxCell id="3jjAMyPF5PVQkbhZTPx0-1" value="&lt;div style=&quot;text-align: start;&quot;&gt;内核 kernel&lt;/div&gt;&lt;div style=&quot;text-align: start;&quot;&gt;Ring 0&lt;/div&gt;" style="ellipse;whiteSpace=wrap;html=1;aspect=fixed;fillColor=#e51400;fontColor=#ffffff;strokeColor=#B20000;fontSize=14;" vertex="1" parent="1">
          <mxGeometry x="380" y="210" width="150" height="150" as="geometry" />
        </mxCell>
      </root>
    </mxGraphModel>
  </diagram>
</mxfile>
